<svg width="30" height="30" viewBox="0 0 30 30" fill="none" xmlns="http://www.w3.org/2000/svg">
<path d="M27.1 0H22.9C21.6571 0 20.7429 0.514286 20.3286 1.42857C20.1 1.84286 20 2.32857 20 2.9V7.1C20 8.91429 21.0857 10 22.9 10H27.1C27.6714 10 28.1571 9.9 28.5714 9.67143C29.4857 9.25714 30 8.34286 30 7.1V2.9C30 1.08571 28.9143 0 27.1 0ZM28.4429 5.61429C28.3 5.75714 28.0857 5.85714 27.8571 5.87143H25.8429V6.6L25.8571 7.85714C25.8429 8.1 25.7571 8.3 25.5857 8.47143C25.4429 8.61429 25.2286 8.71429 25 8.71429C24.5286 8.71429 24.1429 8.32857 24.1429 7.85714V5.85714L22.1429 5.87143C21.6714 5.87143 21.2857 5.47143 21.2857 5C21.2857 4.52857 21.6714 4.14286 22.1429 4.14286L23.4 4.15714H24.1429V2.15714C24.1429 1.68571 24.5286 1.28571 25 1.28571C25.4714 1.28571 25.8571 1.68571 25.8571 2.15714L25.8429 3.17143V4.14286H27.8571C28.3286 4.14286 28.7143 4.52857 28.7143 5C28.7 5.24286 28.6 5.44286 28.4429 5.61429Z" fill="#C1C1C1"/>
<path d="M10.0016 13.4016C11.8793 13.4016 13.4016 11.8793 13.4016 10.0016C13.4016 8.12381 11.8793 6.60156 10.0016 6.60156C8.12381 6.60156 6.60156 8.12381 6.60156 10.0016C6.60156 11.8793 8.12381 13.4016 10.0016 13.4016Z" fill="#C1C1C1"/>
<path d="M27.1 10H26.4286V16.5857L26.2429 16.4286C25.1286 15.4714 23.3286 15.4714 22.2143 16.4286L16.2714 21.5286C15.1571 22.4857 13.3571 22.4857 12.2429 21.5286L11.7571 21.1286C10.7429 20.2429 9.12857 20.1572 7.98572 20.9286L2.64286 24.5143C2.32857 23.7143 2.14286 22.7857 2.14286 21.7V9.72859C2.14286 5.70002 4.27143 3.57145 8.3 3.57145H20V2.90002C20 2.32859 20.1 1.84287 20.3286 1.42859H8.3C3.1 1.42859 0 4.52859 0 9.72859V21.7C0 23.2572 0.271429 24.6143 0.8 25.7572C2.02857 28.4714 4.65714 30 8.3 30H20.2714C25.4714 30 28.5714 26.9 28.5714 21.7V9.67145C28.1571 9.90002 27.6714 10 27.1 10Z" fill="#C1C1C1"/>
</svg>
