<svg width="29" height="29" viewBox="0 0 29 29" fill="none" xmlns="http://www.w3.org/2000/svg">
<path d="M10.1956 1L5.30859 5.90062" stroke="#48466D" stroke-width="2" stroke-miterlimit="10" stroke-linecap="round" stroke-linejoin="round"/>
<path d="M18.8086 1L23.6956 5.90062" stroke="#48466D" stroke-width="2" stroke-miterlimit="10" stroke-linecap="round" stroke-linejoin="round"/>
<path d="M1 8.89831C1 6.40075 2.3365 6.19824 3.997 6.19824H25.003C26.6635 6.19824 28 6.40075 28 8.89831C28 11.8009 26.6635 11.5984 25.003 11.5984H3.997C2.3365 11.5984 1 11.8009 1 8.89831Z" stroke="#48466D" stroke-width="2"/>
<path d="M11.4766 17.2002V21.9928" stroke="#48466D" stroke-width="2" stroke-linecap="round"/>
<path d="M17.6875 17.2002V21.9928" stroke="#48466D" stroke-width="2" stroke-linecap="round"/>
<path d="M3.02734 11.7993L4.93084 23.4636C5.36284 26.0827 6.40234 27.9997 10.2633 27.9997H18.4038C22.6023 27.9997 23.2233 26.1637 23.7093 23.6256L25.9773 11.7993" stroke="#48466D" stroke-width="2" stroke-linecap="round"/>
</svg>
