<svg width="20" height="25" viewBox="0 0 20 25" fill="none" xmlns="http://www.w3.org/2000/svg">
<path d="M2.66193 14.5452L3.27722 14.9065L2.66193 14.5452Z" fill="#292D32" stroke="#48466D" stroke-width="2"/>
<path d="M10.0413 1C10.8303 1 11.5222 1.41176 11.8906 2.0751C11.6234 2.00987 11.3598 1.95771 11.1003 1.91926L11.0912 1.91791L11.0821 1.91673C10.0948 1.78897 9.12474 1.83724 8.19654 2.06994C8.56785 1.41375 9.25994 1 10.0413 1Z" fill="#292D32" stroke="#48466D" stroke-width="2"/>
<mask id="path-3-inside-1_925_728" fill="white">
<path d="M10.0281 24.67C8.89893 24.67 7.80397 24.2137 7.00561 23.4153C6.20721 22.6169 5.75098 21.522 5.75098 20.3928H7.46184C7.46184 21.0658 7.73554 21.7273 8.21458 22.2063C8.69362 22.6854 9.35516 22.9591 10.0281 22.9591C11.4424 22.9591 12.5944 21.8071 12.5944 20.3928H14.3052C14.3052 22.7538 12.3891 24.67 10.0281 24.67Z"/>
</mask>
<path d="M10.0281 24.67C8.89893 24.67 7.80397 24.2137 7.00561 23.4153C6.20721 22.6169 5.75098 21.522 5.75098 20.3928H7.46184C7.46184 21.0658 7.73554 21.7273 8.21458 22.2063C8.69362 22.6854 9.35516 22.9591 10.0281 22.9591C11.4424 22.9591 12.5944 21.8071 12.5944 20.3928H14.3052C14.3052 22.7538 12.3891 24.67 10.0281 24.67Z" fill="#292D32"/>
<path d="M7.00561 23.4153L8.41985 22.0012L8.41982 22.0011L7.00561 23.4153ZM5.75098 20.3928V18.3928H3.75098V20.3928H5.75098ZM7.46184 20.3928H9.46184V18.3928H7.46184V20.3928ZM12.5944 20.3928V18.3928H10.5944V20.3928H12.5944ZM14.3052 20.3928H16.3052V18.3928H14.3052V20.3928ZM10.0281 22.67C9.43255 22.67 8.84539 22.4267 8.41985 22.0012L5.59136 24.8295C6.76256 26.0008 8.36531 26.67 10.0281 26.67V22.67ZM8.41982 22.0011C7.99423 21.5755 7.75098 20.9884 7.75098 20.3928H3.75098C3.75098 22.0556 4.42018 23.6583 5.59139 24.8296L8.41982 22.0011ZM5.75098 22.3928H7.46184V18.3928H5.75098V22.3928ZM5.46184 20.3928C5.46184 21.5974 5.94713 22.7673 6.80037 23.6205L9.62879 20.7921C9.52395 20.6873 9.46184 20.5341 9.46184 20.3928H5.46184ZM6.80037 23.6205C7.65355 24.4737 8.82341 24.9591 10.0281 24.9591V20.9591C9.8869 20.9591 9.73369 20.897 9.62879 20.7921L6.80037 23.6205ZM10.0281 24.9591C12.547 24.9591 14.5944 22.9117 14.5944 20.3928H10.5944C10.5944 20.7026 10.3378 20.9591 10.0281 20.9591V24.9591ZM12.5944 22.3928H14.3052V18.3928H12.5944V22.3928ZM12.3052 20.3928C12.3052 21.6492 11.2845 22.67 10.0281 22.67V26.67C13.4937 26.67 16.3052 23.8584 16.3052 20.3928H12.3052Z" fill="#48466D" mask="url(#path-3-inside-1_925_728)"/>
</svg>
