<svg width="25" height="25" viewBox="0 0 25 25" fill="none" xmlns="http://www.w3.org/2000/svg">
<path d="M12.366 13.0344L12.4565 13.0378L12.4916 13.026C12.521 13.0262 12.5607 13.0281 12.602 13.0323L12.6399 13.0361L12.6779 13.0341C14.503 12.9387 15.9289 11.4398 15.9425 9.59655H15.9425V9.59288C15.9425 7.70174 14.406 6.15102 12.5006 6.15102C10.5953 6.15102 9.05873 7.70173 9.05873 9.59288C9.05873 11.4538 10.5146 12.9664 12.366 13.0344ZM12.6402 13.7789H12.64H12.6399H12.6397H12.6396H12.6395H12.6393H12.6392H12.6391H12.6389H12.6388H12.6386H12.6385H12.6384H12.6382H12.6381H12.6379H12.6378H12.6377H12.6375H12.6374H12.6372H12.6371H12.637H12.6368H12.6367H12.6365H12.6364H12.6362H12.6361H12.636H12.6358H12.6357H12.6355H12.6354H12.6352H12.6351H12.6349H12.6348H12.6347H12.6345H12.6344H12.6342H12.6341H12.6339H12.6338H12.6336H12.6335H12.6333H12.6332H12.633H12.6329H12.6327H12.6326H12.6324H12.6323H12.6321H12.632H12.6318H12.6317H12.6315H12.6314H12.6312H12.6311H12.6309H12.6308H12.6306H12.6305H12.6303H12.6302H12.63H12.6299H12.6297H12.6296H12.6294H12.6293H12.6291H12.629H12.6288H12.6286H12.6285H12.6283H12.6282H12.628H12.6279H12.6277H12.6276H12.6274H12.6273H12.6271H12.6269H12.6268H12.6266H12.6265H12.6263H12.6262H12.626H12.6258H12.6257H12.6255H12.6254H12.6252H12.6251H12.6249H12.6247H12.6246H12.6244H12.6243H12.6241H12.624H12.6238H12.6236H12.6235H12.6233H12.6232H12.623H12.6228H12.6227H12.6225H12.6224H12.6222H12.622H12.6219H12.6217H12.6215H12.6214H12.6212H12.6211H12.6209H12.6207H12.6206H12.6204H12.6203H12.6201H12.6199H12.6198H12.6196H12.6194H12.6193H12.6191H12.6189H12.6188H12.6186H12.6185H12.6183H12.6181H12.618H12.6178H12.6176H12.6175H12.6173H12.6171H12.617H12.6168H12.6167H12.6165H12.6163H12.6162H12.616H12.6158H12.6157H12.6155H12.6153H12.6152H12.615H12.6148H12.6147H12.6145H12.6143H12.6142H12.614H12.6138H12.6137H12.6135H12.6133H12.6132H12.613H12.6128H12.6127H12.6125H12.6123H12.6122H12.612H12.6118H12.6117H12.6115H12.6113H12.6112H12.611H12.6108H12.6107H12.6105H12.6103H12.6101H12.61H12.6098H12.6096H12.6095H12.6093H12.6091H12.609H12.6088H12.6086H12.6085H12.6083H12.6081H12.608H12.6078H12.6076H12.6074H12.6073H12.6071H12.6069H12.6068H12.6066H12.6064H12.6063H12.6061H12.6059H12.6058H12.6056H12.6054H12.6052H12.6051H12.6049H12.6047H12.6046H12.6044H12.6042H12.6041H12.6039H12.6037H12.6035H12.6034H12.6032H12.603H12.6029H12.6027H12.6025H12.6024H12.6022H12.602H12.6018H12.6017H12.6015H12.6013H12.6012H12.601H12.6008H12.6007H12.6005H12.6003H12.6001H12.6H12.5998H12.5996H12.5995H12.5993H12.5991H12.599H12.5988H12.5986H12.5984H12.5983H12.5981H12.5979H12.5978H12.5976H12.5974H12.5972H12.5971H12.5969H12.5967H12.5966H12.5964H12.5962H12.5961H12.5959H12.5957H12.5955H12.5954H12.5952H12.595H12.5949H12.5947H12.5945H12.5944H12.5942H12.594H12.5938H12.5937H12.5935H12.5933H12.5932H12.593H12.5928H12.5927H12.5925H12.5923H12.5922H12.592H12.5918H12.5916H12.5915H12.5913H12.5911H12.591H12.5908H12.5906H12.5905H12.5903H12.5901H12.59H12.5898H12.5896H12.5894H12.5893H12.5891H12.5889H12.5888H12.5886H12.5884H12.5883H12.5881H12.5879H12.5878H12.5876H12.5874H12.5873H12.5871H12.5869H12.5868H12.5866H12.5864H12.5863H12.5861H12.5859H12.5858H12.5856H12.5854H12.5853H12.5851H12.5849H12.5848H12.5846H12.5844H12.5843H12.5841H12.5839H12.5838H12.5836H12.5834H12.5833H12.5831H12.5829H12.5828H12.5826H12.5824H12.5823H12.5821H12.5819H12.5818H12.5816H12.5814H12.5813H12.5811H12.581H12.5808H12.5806H12.5805H12.5803H12.5801H12.58H12.5798H12.5796H12.5795H12.5793H12.5792H12.579H12.5788H12.5787H12.5785H12.5783H12.5782H12.578H12.5779H12.5777H12.5775H12.5774H12.5772H12.5771H12.5769H12.5767H12.5766H12.5764H12.5763H12.5761H12.5759H12.5758H12.5756H12.5755H12.5753H12.5751H12.575H12.5748H12.5747H12.5745H12.5743H12.5742H12.574H12.5739H12.5737H12.5735H12.5734H12.5732H12.5731H12.5729H12.5728H12.5726H12.5724H12.5723H12.5721H12.572H12.5718H12.5717H12.5715H12.5714H12.5712H12.571H12.5709H12.5707H12.5706H12.5704H12.5703H12.5701H12.57H12.5698H12.5697H12.5695H12.5694H12.5692H12.569H12.5689H12.5687H12.5686H12.5684H12.5683H12.5681H12.568H12.5678H12.5677H12.5675H12.5674H12.5672H12.5671H12.5669H12.5668H12.5666H12.5665H12.5663H12.5662H12.566H12.5659H12.5657H12.5656H12.5654H12.5653H12.5651H12.565H12.5649H12.5647H12.5646H12.5644H12.5643H12.5641H12.564H12.5638H12.5637H12.5635H12.5634H12.5633H12.5631H12.563H12.5628H12.5627H12.5625H12.5624H12.5623H12.5621H12.562H12.5618H12.5617H12.5615H12.5614H12.5613H12.5611H12.561H12.5608H12.5607H12.5606H12.5604H12.5603H12.5601H12.56H12.5599H12.5597H12.5596H12.5594H12.5593H12.5592H12.559H12.5589H12.5588H12.5586H12.5584H12.5581H12.5579H12.5577H12.5575H12.5573H12.5571H12.5569H12.5567H12.5565H12.5563H12.5561H12.5559H12.5557H12.5555H12.5553H12.555H12.5548H12.5546H12.5544H12.5542H12.554H12.5538H12.5536H12.5534H12.5532H12.5529H12.5527H12.5525H12.5523H12.5521H12.5519H12.5517H12.5515H12.5512H12.551H12.5508H12.5506H12.5504H12.5502H12.55H12.5497H12.5495H12.5493H12.5491H12.5489H12.5487H12.5484H12.5482H12.548H12.5478H12.5476H12.5474H12.5471H12.5469H12.5467H12.5465H12.5463H12.5461H12.5458H12.5456H12.5454H12.5452H12.545H12.5447H12.5445H12.5443H12.5441H12.5439H12.5436H12.5434H12.5432H12.543H12.5428H12.5425H12.5423H12.5421H12.5419H12.5416H12.5414H12.5412H12.541H12.5408H12.5405H12.5403H12.5401H12.5399H12.5396H12.5394H12.5392H12.539H12.5387H12.5385H12.5383H12.5381H12.5378H12.5376H12.5374H12.5372H12.5369H12.5367H12.5365H12.5363H12.536H12.5358H12.5356H12.5354H12.5351H12.5349H12.5347H12.5344H12.5342H12.534H12.5338H12.5335H12.5333H12.5331H12.5328H12.5326H12.5324H12.5322H12.5319H12.5317H12.5315H12.5312H12.531H12.5308H12.5306H12.5303H12.5301H12.5299H12.5296H12.5294H12.5292H12.5289H12.5287H12.5285H12.5282H12.528H12.5278H12.5276H12.5273H12.5271H12.5269H12.5266H12.5264H12.5262H12.5259H12.5257H12.5255H12.5252H12.525H12.5248H12.5245H12.5243H12.5241H12.5238H12.5236H12.5234H12.5231H12.5229H12.5227H12.5224H12.5222H12.522H12.5217H12.5215H12.5213H12.521H12.5208H12.5206H12.5203H12.5201H12.5198H12.5196H12.5194H12.5191H12.5189H12.5187H12.5184H12.5182H12.518H12.5177H12.5175H12.5173H12.517H12.5168H12.5165H12.5163H12.5161H12.5158H12.5156H12.5154H12.5151H12.5149H12.5147H12.5144H12.5142H12.5139H12.5137H12.5135H12.5132H12.513H12.5128H12.5125H12.5123H12.5121H12.5118H12.5116H12.5113H12.5111H12.5109H12.5106H12.5104H12.5102H12.5099H12.5097H12.5094H12.5092H12.509H12.5087H12.5085H12.5082H12.508H12.5078H12.5075H12.5073H12.5071H12.5068H12.5066H12.5063H12.5061H12.5059H12.5056H12.5054H12.5052H12.5049H12.5047H12.5044H12.5042H12.504H12.5037H12.5035H12.5032H12.503H12.5028H12.5025H12.5023H12.5021H12.5018H12.5016H12.5013H12.5011H12.5009H12.5006H12.5004H12.5001H12.4999H12.4997H12.4994H12.4992H12.499H12.4987H12.4985H12.4982H12.498H12.4978H12.4975H12.4973H12.497H12.4968H12.4966H12.4963H12.4961H12.4959H12.4956H12.4954H12.4951H12.4949H12.4947H12.4944H12.4942H12.494H12.4937H12.4935H12.4932H12.493H12.4928H12.4925H12.4923H12.492H12.4918H12.4916H12.4913H12.4911H12.4909H12.4906H12.4904H12.4901H12.4899H12.4897H12.4894H12.4892H12.489H12.4887H12.4885H12.4882H12.488H12.4878H12.4875H12.4873H12.4871H12.4868H12.4866H12.4864H12.4861H12.4859H12.4856H12.4854H12.4852H12.4849H12.4847H12.4845H12.4842H12.484H12.4838H12.4835H12.4833H12.483H12.4828H12.4826H12.4823H12.4821H12.4819H12.4816H12.4814H12.4812H12.4809H12.4807H12.4805H12.4802H12.48H12.4798H12.4795H12.4793H12.4791H12.4788H12.4786H12.4784H12.4781H12.4779H12.4777H12.4774H12.4772H12.477H12.4767H12.4765H12.4763H12.476H12.4758H12.4756H12.4753H12.4751H12.4749H12.4746H12.4744H12.4742H12.4739H12.4737H12.4735H12.4732H12.473H12.4728H12.4725H12.4723H12.4721H12.4718H12.4716H12.4714H12.4712H12.4709H12.4707H12.4705H12.4702H12.47H12.4698H12.4695H12.4693H12.4691H12.4689H12.4686H12.4684H12.4682H12.4679H12.4677H12.4675H12.4673H12.467H12.4668H12.4666H12.4663H12.4661H12.4659H12.4657H12.4654H12.4652H12.465H12.4648H12.4645H12.4643H12.4641H12.4639H12.4636H12.4634H12.4632H12.463H12.4627H12.4625H12.4623H12.4621H12.4618H12.4616H12.4614H12.4612H12.4609H12.4607H12.4605H12.4603H12.46H12.4598H12.4596H12.4594H12.4592H12.4589H12.4587H12.4585H12.4583H12.458H12.4578H12.4576H12.4574H12.4572H12.4569H12.4567H12.4565H12.4563H12.4561H12.4558H12.4556H12.4554H12.4552H12.455H12.4548H12.4545H12.4543H12.4541H12.4539H12.4537H12.4534H12.4532H12.453H12.4528H12.4526H12.4524H12.4522H12.4519H12.4517H12.4515H12.4513H12.4511H12.4509H12.4506H12.4504H12.4504C10.08 13.7021 8.32617 11.8623 8.32617 9.6045C8.32617 7.29925 10.207 5.41846 12.5123 5.41846C14.8171 5.41846 16.6976 7.29858 16.6983 9.60328C16.6874 11.8795 14.9153 13.7023 12.6668 13.7789H12.6667H12.6666H12.6665H12.6664H12.6663H12.6662H12.6661H12.666H12.6659H12.6658H12.6657H12.6656H12.6655H12.6654H12.6653H12.6652H12.6651H12.665H12.6649H12.6648H12.6647H12.6647H12.6646H12.6645H12.6644H12.6643H12.6642H12.6641H12.664H12.6639H12.6638H12.6637H12.6636H12.6635H12.6635H12.6634H12.6633H12.6632H12.6631H12.663H12.6629H12.6628H12.6628H12.6627H12.6626H12.6625H12.6624H12.6623H12.6622H12.6622H12.6621H12.662H12.6619H12.6618H12.6617H12.6617H12.6616H12.6615H12.6614H12.6613H12.6613H12.6612H12.6611H12.661H12.6609H12.6609H12.6608H12.6607H12.6606H12.6605H12.6605H12.6604H12.6603H12.6602H12.6602H12.6601H12.66H12.6599H12.6599H12.6598H12.6597H12.6596H12.6596H12.6595H12.6594H12.6593H12.6593H12.6592H12.6591H12.6591H12.659H12.6589H12.6588H12.6588H12.6587H12.6586H12.6586H12.6585H12.6584H12.6584H12.6583H12.6582H12.6582H12.6581H12.658H12.658H12.6579H12.6578H12.6578H12.6577H12.6576H12.6576H12.6575H12.6574H12.6574H12.6573H12.6572H12.6572H12.6571H12.657H12.657H12.6569H12.6569H12.6568H12.6567H12.6567H12.6566H12.6565H12.6565H12.6564H12.6564H12.6563H12.6562H12.6562H12.6561H12.6561H12.656H12.6559H12.6559H12.6558H12.6558H12.6557H12.6556H12.6556H12.6555H12.6555H12.6554H12.6554H12.6553H12.6552H12.6552H12.6551H12.6551H12.655H12.655H12.6549H12.6548H12.6548H12.6547H12.6547H12.6546H12.6546H12.6545H12.6545H12.6544H12.6543H12.6543H12.6542H12.6542H12.6541H12.6541H12.654H12.654H12.6539H12.6539H12.6538H12.6538H12.6537H12.6537H12.6536H12.6536H12.6535H12.6534H12.6534H12.6533H12.6533H12.6532H12.6532H12.6531H12.6531H12.653H12.653H12.6529H12.6529H12.6528H12.6528H12.6527H12.6527H12.6526H12.6526H12.6525H12.6525H12.6524H12.6524H12.6523H12.6523H12.6522H12.6522H12.6521H12.6521H12.652H12.652H12.652H12.6519H12.6519H12.6518H12.6518H12.6517H12.6517H12.6516H12.6516H12.6515H12.6515H12.6514H12.6514H12.6513H12.6513H12.6512H12.6512H12.6511H12.6511H12.6511H12.651H12.651H12.6509H12.6509H12.6508H12.6508H12.6507H12.6507H12.6506H12.6506H12.6505H12.6505H12.6505H12.6504H12.6504H12.6503H12.6503H12.6502H12.6502H12.6501H12.6501H12.65H12.65H12.6499H12.6499H12.6499H12.6498H12.6498H12.6497H12.6497H12.6496H12.6496H12.6495H12.6495H12.6494H12.6494H12.6494H12.6493H12.6493H12.6492H12.6492H12.6491H12.6491H12.649H12.649H12.6489H12.6489H12.6489H12.6488H12.6488H12.6487H12.6487H12.6486H12.6486H12.6485H12.6485H12.6484H12.6484H12.6484H12.6483H12.6483H12.6482H12.6482H12.6481H12.6481H12.648H12.648H12.6479H12.6479H12.6478H12.6478H12.6478H12.6477H12.6477H12.6476H12.6476H12.6475H12.6475H12.6474H12.6474H12.6473H12.6473H12.6472H12.6472H12.6472H12.6471H12.6471H12.647H12.647H12.6469H12.6469H12.6468H12.6468H12.6467H12.6467H12.6466H12.6466H12.6465H12.6465H12.6464H12.6464H12.6463H12.6463H12.6462H12.6462H12.6461H12.6461H12.646H12.646H12.646H12.6459H12.6459H12.6458H12.6458H12.6457H12.6457H12.6456H12.6456H12.6455H12.6455H12.6454H12.6454H12.6453H12.6453H12.6452H12.6451H12.6451H12.645H12.645H12.6449H12.6449H12.6448H12.6448H12.6447H12.6447H12.6446H12.6446H12.6445H12.6445H12.6444H12.6444H12.6443H12.6443H12.6442H12.6442H12.6441H12.644H12.644H12.6439H12.6439H12.6438H12.6438H12.6437H12.6437H12.6436H12.6435H12.6435H12.6434H12.6434H12.6433H12.6433H12.6432H12.6432H12.6431H12.643H12.643H12.6429H12.6429H12.6428H12.6427H12.6427H12.6426H12.6426H12.6425H12.6425H12.6424H12.6423H12.6423H12.6422H12.6422H12.6421H12.642H12.642H12.6419H12.6418H12.6418H12.6417H12.6417H12.6416H12.6415H12.6415H12.6414H12.6413H12.6413H12.6412H12.6412H12.6411H12.641H12.641H12.6409H12.6408H12.6408H12.6407H12.6406H12.6406H12.6405H12.6404H12.6404H12.6403H12.6402H12.6402Z" fill="#48466D" stroke="#48466D"/>
<path d="M4.40809 21.3525L4.40812 21.3525L4.40283 21.3478C4.32679 21.2802 4.27952 21.1651 4.28931 21.0369C4.42288 19.8343 5.17676 18.6665 6.51046 17.7773C8.14447 16.6917 10.313 16.1343 12.5052 16.1343C14.6971 16.1343 16.862 16.6915 18.4898 17.7763C19.8291 18.6804 20.5817 19.8402 20.7131 21.0432L20.7131 21.0432L20.714 21.0509C20.7279 21.1618 20.6888 21.2678 20.5989 21.3478L20.5989 21.3477L20.5937 21.3525C18.3716 23.3848 15.5035 24.5006 12.5009 24.5006C9.49829 24.5006 6.63018 23.3848 4.40809 21.3525ZM5.1376 20.6149L5.04482 20.9293L5.29616 21.1397C7.31642 22.8314 9.8603 23.7564 12.5009 23.7564C15.1414 23.7564 17.6853 22.8314 19.7056 21.1397L19.9569 20.9293L19.8641 20.6149C19.6123 19.7614 18.9605 18.9896 18.0716 18.3887L18.0716 18.3887L18.0689 18.3869C16.5371 17.3657 14.5065 16.8726 12.5038 16.8726C10.5009 16.8726 8.46532 17.3657 6.92276 18.3858L6.92274 18.3858L6.91851 18.3887C6.02608 18.992 5.38852 19.7645 5.1376 20.6149Z" fill="#48466D" stroke="#48466D"/>
<path d="M12.5 24.5C5.88079 24.5 0.5 19.1192 0.5 12.5C0.5 5.88079 5.88079 0.5 12.5 0.5C19.1192 0.5 24.5 5.88079 24.5 12.5C24.5 19.1192 19.1192 24.5 12.5 24.5ZM12.5 1.24419C6.29362 1.24419 1.24419 6.29362 1.24419 12.5C1.24419 18.7064 6.29362 23.7558 12.5 23.7558C18.7064 23.7558 23.7558 18.7064 23.7558 12.5C23.7558 6.29362 18.7064 1.24419 12.5 1.24419Z" fill="#48466D" stroke="#48466D"/>
</svg>
