<svg width="34" height="21" viewBox="0 0 34 21" fill="none" xmlns="http://www.w3.org/2000/svg">
<path d="M11.1825 19.909C12.7892 19.909 14.0916 18.6066 14.0916 16.9999C14.0916 15.3932 12.7892 14.0908 11.1825 14.0908C9.57588 14.0908 8.27344 15.3932 8.27344 16.9999C8.27344 18.6066 9.57588 19.909 11.1825 19.909Z" stroke="#FF4500" stroke-width="2" stroke-miterlimit="1.5" stroke-linecap="round" stroke-linejoin="round"/>
<path d="M25.7275 19.909C27.3341 19.909 28.6365 18.6066 28.6365 16.9999C28.6365 15.3932 27.3341 14.0908 25.7275 14.0908C24.1208 14.0908 22.8184 15.3932 22.8184 16.9999C22.8184 18.6066 24.1208 19.909 25.7275 19.909Z" stroke="#FF4500" stroke-width="2" stroke-miterlimit="1.5" stroke-linecap="round" stroke-linejoin="round"/>
<path d="M14.1636 17H21.3636V1.87273C21.3636 1.39073 20.9729 1 20.4909 1H1" stroke="#FF4500" stroke-width="2" stroke-linecap="round"/>
<path d="M7.7647 17H4.78288C4.30089 17 3.91016 16.6093 3.91016 16.1273V9" stroke="#FF4500" stroke-width="2" stroke-linecap="round"/>
<path d="M2.45312 5.36328H8.27131" stroke="#FF4500" stroke-width="2" stroke-linecap="round" stroke-linejoin="round"/>
<path d="M21.3633 5.36328H29.5234C29.8683 5.36328 30.1809 5.56639 30.321 5.88157L32.9244 11.7394C32.974 11.8511 32.9996 11.9719 32.9996 12.0939V16.1269C32.9996 16.609 32.609 16.9996 32.1269 16.9996H29.3633" stroke="#FF4500" stroke-width="2" stroke-linecap="round"/>
<path d="M21.3633 17H22.8178" stroke="#FF4500" stroke-width="2" stroke-linecap="round"/>
</svg>
