<svg width="22" height="21" viewBox="0 0 22 21" fill="none" xmlns="http://www.w3.org/2000/svg">
<path d="M10.8971 1.09598C11.0329 0.68375 11.6161 0.683751 11.7519 1.09598L13.7745 7.23459C13.9029 7.6241 14.2667 7.88729 14.6768 7.88729H21.2012C21.6386 7.88729 21.8189 8.44832 21.4633 8.70309L16.2019 12.4726C15.8642 12.7145 15.7229 13.1477 15.8529 13.5422L17.8665 19.6535C18.0027 20.0669 17.5309 20.4136 17.177 20.1601L11.8778 16.3634C11.547 16.1264 11.102 16.1264 10.7712 16.3634L5.47196 20.1601C5.11806 20.4136 4.64624 20.0669 4.78248 19.6535L6.79612 13.5422C6.9261 13.1477 6.78475 12.7145 6.44712 12.4726L1.18572 8.70309C0.830117 8.44832 1.01035 7.88729 1.4478 7.88729H7.97217C8.38229 7.88729 8.74611 7.6241 8.87445 7.23459L10.8971 1.09598Z" fill="white" stroke="#48466D" stroke-width="0.5"/>
</svg>
